<svg width="200" height="200" viewBox="0 0 200 200" fill="none" xmlns="http://www.w3.org/2000/svg">
<path d="M50.7449 124.992C47.5915 117.903 45.8334 110.018 45.8334 101.708C45.8334 70.8446 70.0846 45.8252 100 45.8252C129.916 45.8252 154.167 70.8446 154.167 101.708C154.167 110.018 152.408 117.903 149.255 124.992" stroke="#397A80" stroke-width="3" stroke-linecap="round"/>
<path d="M100 16.6585V24.9918" stroke="#397A80" stroke-width="3" stroke-linecap="round" stroke-linejoin="round"/>
<path d="M183.333 99.9916H175" stroke="#397A80" stroke-width="3" stroke-linecap="round" stroke-linejoin="round"/>
<path d="M25 99.9916H16.6666" stroke="#397A80" stroke-width="3" stroke-linecap="round" stroke-linejoin="round"/>
<path d="M158.92 41.0644L153.027 46.957" stroke="#397A80" stroke-width="3" stroke-linecap="round" stroke-linejoin="round"/>
<path d="M46.9734 46.9652L41.0808 41.0726" stroke="#397A80" stroke-width="3" stroke-linecap="round" stroke-linejoin="round"/>
<path d="M120.975 160.879C129.395 158.155 132.772 150.448 133.722 142.697C134.005 140.382 132.1 138.46 129.767 138.46L70.6404 138.462C68.227 138.462 66.2889 140.51 66.5771 142.907C67.5075 150.642 69.8558 156.294 78.7787 160.879M120.975 160.879C120.975 160.879 80.2476 160.879 78.7787 160.879M120.975 160.879C119.962 177.087 115.282 183.506 100.057 183.326C83.7716 183.627 80.0252 175.692 78.7787 160.879" stroke="#397A80" stroke-width="3" stroke-linecap="round" stroke-linejoin="round"/>
</svg>
